<?xml version="1.0" encoding="iso-8859-1"?>
<!-- Generator: Adobe Illustrator 16.0.0, SVG Export Plug-In . SVG Version: 6.00 Build 0)  -->
<!DOCTYPE svg PUBLIC "-//W3C//DTD SVG 1.1//EN" "http://www.w3.org/Graphics/SVG/1.1/DTD/svg11.dtd">
<svg version="1.1" id="Capa_1" xmlns="http://www.w3.org/2000/svg" xmlns:xlink="http://www.w3.org/1999/xlink" x="0px" y="0px"
	 width="530px" height="530px" viewBox="0 0 530 530" style="enable-background:new 0 0 530 530;" xml:space="preserve">
<g>
	<g>
		<path d="M340.5,356.4c-22.2,11.699-41.8,22.1-54.601,29.1V530H494.7c0,0,0-42.1,0-94c0-49.2-46.3-105.7-105.101-130.2
			C376.9,327.8,359.8,346.3,340.5,356.4z"/>
		<path d="M265,391.8L195.5,356.4c-19.5-10.2-38.4-29.2-52.5-51.7C82.9,328.7,35.3,386,35.3,435.9v94H265V391.8z M236.2,513.5
			c-8.6,0-15.6-7-15.6-15.6c0-8.601,7-15.601,15.6-15.601c8.6,0,15.6,7,15.6,15.601C251.9,506.5,244.9,513.5,236.2,513.5z
			 M236.2,471.8c-8.6,0-15.6-7-15.6-15.6c0-8.601,7-15.601,15.6-15.601c8.6,0,15.6,7,15.6,15.601
			C251.8,464.8,244.9,471.8,236.2,471.8z M236.2,430c-8.6,0-15.6-7-15.6-15.6c0-8.601,7-15.601,15.6-15.601
			c8.6,0,15.6,7,15.6,15.601C252,422.9,244.9,430,236.2,430z"/>
		<path d="M140.2,231.2c18,58.399,64.1,119,126.5,119c62.399,0,108.5-60.5,126.5-119c15.399-5.3,28.3-20.6,33.3-40.1
			c4-16.1,2.2-32.2-5.1-44.4c-5.2-8.8-12.7-14.5-21.7-16.7c-0.4-0.1-0.8-0.2-1.2-0.2C383.9,54,329.5,0,266.601,0
			C203.7,0,149.3,54,134.7,129.7c-0.4,0.1-0.8,0.1-1.2,0.2c-9,2.2-16.5,8-21.7,16.7c-7.3,12.1-9.1,28.3-5.1,44.4
			C112,210.6,124.9,225.9,140.2,231.2z M130,157.4c1.6-2.7,4.5-6.1,8.9-7.2c0.7-0.1,1.3-0.2,2.2-0.2c0.6,0,1.1,0,1.8,0.1l9.8,0.9
			l1.5-9.8c10.6-69.8,57.9-120.4,112.699-120.4C321.7,20.8,369,71.5,379.6,141.2l1.5,9.8l9.801-0.9c1.5-0.1,2.899-0.1,4,0.1
			c4.399,1.1,7.199,4.5,8.8,7.2c4.399,7.3,5.399,18,2.7,28.5c-4,15.7-14.5,25.2-22.7,26.3l-6.9,0.9l-1.8,6.6
			c-14.9,54.5-57,109.5-108.101,109.5c-51.1,0-93.1-55.2-108.1-109.5l-1.8-6.6l-6.9-0.9c-8.3-1.1-18.8-10.4-22.7-26.3
			C124.6,175.4,125.6,164.7,130,157.4z"/>
		<path d="M223.9,60.1c2-0.9,4.4-1.9,6.9-2.2c2.4-0.4,4.9-1,7.3-1.7c2.2-0.9,5.4-0.8,8.1-1.3c2.8-0.3,5.6-1.3,8.6-1.1
			c2.9,0,6-0.3,8.9-0.6c2.9,0.2,6,0.6,8.9,0.6c3-0.2,5.699,0.8,8.6,1.1c2.8,0.6,5.8,0.3,8.199,1.5c2.601,0.8,5.201,1.3,7.5,1.9
			c2.501,0.4,4.601,1.3,6.501,2c1.899,0.8,3.699,1.3,5.3,1.8c3,1,5.1,1.5,5.1,1.5s-0.7-1.7-2.399-4.6
			c-0.801-1.5-1.801-3.3-3.301-5.1c-1.3-2-2.8-4.3-5.199-6c-2.101-1.9-4.601-3.9-7.3-6c-2.601-2.2-6.101-3.3-9.4-4.8
			c-3.5-1.3-7-3.1-10.9-3.4c-3.8-0.7-7.9-1-11.8-1.5c-3.9,0.3-8,0.8-11.8,1.5c-3.9,0.3-7.4,2-10.9,3.4c-3.4,1.6-6.6,2.5-9.5,4.9
			c-2.9,2-5.4,4.3-7.6,6.2c-2.5,1.8-3.7,3.9-4.9,5.7c-1.2,1.8-2.2,3.6-3,4.9c-1.6,2.8-2.4,4.6-2.4,4.6s1.9-0.4,5.1-1.5
			C220,61.6,221.9,61,223.9,60.1z"/>
		<path d="M221.1,97.6c2.9-1.1,6.1-2,9.4-2.8c3.3-1.1,6.9-1.5,10.4-2.5c3.7-0.4,7.3-1.2,11.1-1.5c3.8-0.4,7.6-0.4,11.5-0.6
			c3.8,0.2,7.601,0.1,11.5,0.7c3.8,0.2,7.399,1,11.101,1.5c3.5,1,7.199,1.3,10.299,2.5c3.4,0.9,6.501,1.8,9.4,2.8
			c5.8,2,11,4,14.4,5.7c3.6,1.6,5.8,2.5,5.8,2.5s-1-2-3-5.6c-1-1.8-2.4-3.8-4.3-6c-1.8-2.2-3.9-4.7-6.601-6.9
			c-2.6-2.5-5.6-4.8-9.199-7c-3.4-2.4-7.4-3.9-11.601-5.8c-4.3-1.3-8.8-3.1-13.5-3.7c-4.699-1.1-9.5-1.1-14.4-1.5
			c-4.8,0.3-9.8,0.3-14.4,1.5c-4.7,0.7-9.2,2.4-13.5,3.7c-4.2,1.9-8.2,3.5-11.6,5.8c-3.6,2.1-6.6,4.5-9.2,6.9
			c-2.7,2.1-4.9,4.7-6.7,7c-2,2.1-3.3,4.2-4.3,5.8c-2,3.5-3,5.5-3,5.5s2.2-0.8,5.8-2.5C210.4,101.4,215.2,99.8,221.1,97.6z"/>
		<path d="M214.1,232.2c23.6,0,40.7-9.9,41-23.5c7.2-2.8,15.299-2.8,22.5,0c0.299,13.6,17.399,23.5,40.999,23.5
			c23.801,0,41.101-10,41.101-23.8c0-13.8-17.3-23.8-41.101-23.8c-14.199,0-25.8,3.6-33.1,9.4c-12.101-5.3-25.9-5.3-38.1,0
			c-7.3-5.7-19-9.4-33.1-9.4c-23.8,0-41.1,10-41.1,23.8C173,222.1,190.3,232.2,214.1,232.2z M342.7,208c-0.8,2-9.3,7.3-24.3,7.3
			c-13.801,0-22.101-4.5-23.8-6.4l3.499-3.5c3.9-2,10.9-4.2,20.4-4.2C333.4,201.3,342.1,206.6,342.7,208z M214.1,201.3
			c9.3,0,16.2,2,20.1,3.9l3.6,3.6c-2.1,2.4-10.3,6.5-23.7,6.5c-14.9,0-23.5-5.3-24.3-6.7C190.6,206.6,199.2,201.3,214.1,201.3z"/>
	</g>
</g>
<g>
</g>
<g>
</g>
<g>
</g>
<g>
</g>
<g>
</g>
<g>
</g>
<g>
</g>
<g>
</g>
<g>
</g>
<g>
</g>
<g>
</g>
<g>
</g>
<g>
</g>
<g>
</g>
<g>
</g>
</svg>
